<svg xmlns="http://www.w3.org/2000/svg" xmlns:xlink="http://www.w3.org/1999/xlink" width="500" zoomAndPan="magnify" viewBox="0 0 375 374.999991" height="500" preserveAspectRatio="xMidYMid meet" version="1.2"><defs><clipPath id="3efbde9555"><path d="M 37.5 0 L 337.5 0 C 347.445312 0 356.984375 3.949219 364.015625 10.984375 C 371.050781 18.015625 375 27.554688 375 37.5 L 375 337.5 C 375 347.445312 371.050781 356.984375 364.015625 364.015625 C 356.984375 371.050781 347.445312 375 337.5 375 L 37.5 375 C 27.554688 375 18.015625 371.050781 10.984375 364.015625 C 3.949219 356.984375 0 347.445312 0 337.5 L 0 37.5 C 0 27.554688 3.949219 18.015625 10.984375 10.984375 C 18.015625 3.949219 27.554688 0 37.5 0 Z M 37.5 0 "/></clipPath></defs><g id="5757e3dc7c"><g clip-rule="nonzero" clip-path="url(#3efbde9555)"><rect x="0" width="375" y="0" height="374.999991" style="fill:#ffffff;fill-opacity:1;stroke:none;"/></g><g style="fill:#000000;fill-opacity:1;"><g transform="translate(32.059338, 281.449642)"><path style="stroke:none" d="M 18.703125 -161.34375 L 18.703125 -196.59375 L 56.671875 -196.59375 L 56.671875 -161.34375 Z M 18.703125 0 L 18.703125 -144.265625 L 56.671875 -144.265625 L 56.671875 0 Z M 18.703125 0 "/></g></g><g style="fill:#000000;fill-opacity:1;"><g transform="translate(102.565339, 281.449642)"><path style="stroke:none" d="M 136.40625 -100.328125 L 99.25 -100.328125 C 98.164062 -107.378906 95.585938 -112.304688 91.515625 -115.109375 C 87.453125 -117.910156 81.441406 -119.3125 73.484375 -119.3125 C 65.890625 -119.3125 60.148438 -118.226562 56.265625 -116.0625 C 52.378906 -113.894531 50.4375 -110.28125 50.4375 -105.21875 C 50.4375 -101.238281 53.328125 -98.070312 59.109375 -95.71875 C 64.898438 -93.375 74.210938 -91.023438 87.046875 -88.671875 C 106.929688 -84.878906 120.847656 -79.546875 128.796875 -72.671875 C 136.753906 -65.804688 140.734375 -56.945312 140.734375 -46.09375 C 140.734375 -29.28125 134.8125 -16.757812 122.96875 -8.53125 C 111.132812 -0.3125 95.722656 3.796875 76.734375 3.796875 C 55.585938 3.796875 38.867188 -0.675781 26.578125 -9.625 C 14.285156 -18.570312 8.140625 -30.726562 8.140625 -46.09375 L 47.1875 -46.09375 C 47.1875 -32 57.582031 -24.953125 78.375 -24.953125 C 85.78125 -24.953125 91.695312 -26.351562 96.125 -29.15625 C 100.5625 -31.957031 102.78125 -35.523438 102.78125 -39.859375 C 102.78125 -44.203125 99.929688 -47.546875 94.234375 -49.890625 C 88.535156 -52.242188 78.363281 -54.773438 63.71875 -57.484375 C 46.726562 -60.554688 34.070312 -65.484375 25.75 -72.265625 C 17.4375 -79.046875 13.28125 -88.222656 13.28125 -99.796875 C 13.28125 -114.253906 18.429688 -125.910156 28.734375 -134.765625 C 39.046875 -143.628906 53.332031 -148.0625 71.59375 -148.0625 C 92.738281 -148.0625 108.597656 -143.898438 119.171875 -135.578125 C 129.753906 -127.265625 135.5 -115.515625 136.40625 -100.328125 Z M 136.40625 -100.328125 "/></g></g><g style="fill:#000000;fill-opacity:1;"><g transform="translate(260.048687, 281.449642)"><path style="stroke:none" d="M -8.953125 5.15625 L 52.609375 -199.859375 L 84.328125 -199.859375 L 22.78125 5.15625 Z M -8.953125 5.15625 "/></g></g></g></svg>