<?xml version="1.0" encoding="UTF-8"?>
<!DOCTYPE svg PUBLIC "-//W3C//DTD SVG 1.1//EN" "http://www.w3.org/Graphics/SVG/1.1/DTD/svg11.dtd">
<svg xmlns="http://www.w3.org/2000/svg" version="1.1" width="500px" height="500px" style="shape-rendering:geometricPrecision; text-rendering:geometricPrecision; image-rendering:optimizeQuality; fill-rule:evenodd; clip-rule:evenodd" xmlns:xlink="http://www.w3.org/1999/xlink">
<g><path style="opacity:0.974" fill="#fefefe" d="M 23.5,-0.5 C 38.8333,-0.5 54.1667,-0.5 69.5,-0.5C 69.5,166.167 69.5,332.833 69.5,499.5C 55.1667,499.5 40.8333,499.5 26.5,499.5C 14.2566,494.011 5.25657,485.678 -0.5,474.5C -0.5,324.833 -0.5,175.167 -0.5,25.5C 0.833333,25.1667 0.833333,24.8333 -0.5,24.5C -0.5,24.1667 -0.5,23.8333 -0.5,23.5C 1.0672,22.3192 1.90054,20.6526 2,18.5C 4.59627,15.9739 6.4296,13.4739 7.5,11C 11.9131,6.55712 17.2464,2.72379 23.5,-0.5 Z"/></g>
<g><path style="opacity:0.981" fill="#fefefe" d="M 186.5,-0.5 C 244.167,-0.5 301.833,-0.5 359.5,-0.5C 352.79,2.26547 345.29,6.26547 337,11.5C 321.09,20.328 307.09,33.328 295,50.5C 294.097,51.7014 292.931,52.5348 291.5,53C 288.347,61.7727 283.68,70.606 277.5,79.5C 278.083,81.548 278.083,83.3813 277.5,85C 273.972,92.9958 270.638,101.329 267.5,110C 267.957,110.414 268.291,110.914 268.5,111.5C 266.469,113.249 266.135,115.249 267.5,117.5C 266.96,118.748 266.293,119.915 265.5,121C 265.609,124.17 265.609,127.337 265.5,130.5C 264.137,133.205 263.804,135.872 264.5,138.5C 264.182,139.647 263.516,140.481 262.5,141C 263.694,147.525 263.361,154.192 261.5,161C 261.523,172.16 261.523,183.326 261.5,194.5C 263.112,201.722 264.112,208.889 264.5,216C 263.892,218.278 264.225,220.612 265.5,223C 264.7,224.788 264.366,226.455 264.5,228C 265.428,228.388 266.095,229.055 266.5,230C 265.795,231.422 265.461,232.755 265.5,234C 268.691,244.48 272.357,255.146 276.5,266C 276.167,266.333 275.833,266.667 275.5,267C 276.438,268.063 277.438,269.23 278.5,270.5C 277.098,271.842 277.431,272.676 279.5,273C 280.965,278.598 283.631,283.931 287.5,289C 287.167,289.333 286.833,289.667 286.5,290C 294.518,304.16 303.018,318.326 312,332.5C 312.914,331.346 313.747,331.513 314.5,333C 328.205,352.115 344.371,370.282 363,387.5C 363.943,390.4 365.61,392.733 368,394.5C 368.333,394.167 368.667,393.833 369,393.5C 381.948,406.048 394.781,417.881 407.5,429C 419,440.5 431.167,452.667 444,465.5C 453.589,477.03 461.755,488.363 468.5,499.5C 374.5,499.5 280.5,499.5 186.5,499.5C 186.5,332.833 186.5,166.167 186.5,-0.5 Z"/></g>
<g><path style="opacity:0.971" fill="#fefefe" d="M 499.5,136.5 C 499.5,208.833 499.5,281.167 499.5,353.5C 476.723,334.606 454.389,313.772 432.5,291C 432.833,290.667 433.167,290.333 433.5,290C 432.027,289.29 431.36,288.124 431.5,286.5C 430.448,286.649 429.448,286.483 428.5,286C 410.365,265.479 396.032,242.979 385.5,218.5C 385.833,217.833 386.167,217.167 386.5,216.5C 384.592,213.905 383.258,211.405 382.5,209C 383.809,207.249 383.475,205.749 381.5,204.5C 382.659,202.349 382.326,200.349 380.5,198.5C 381.941,195.275 381.607,192.275 379.5,189.5C 379.608,188.558 379.941,187.725 380.5,187C 377.863,174.33 377.863,161.663 380.5,149C 380.043,148.586 379.709,148.086 379.5,147.5C 380.785,145.247 381.785,143.081 382.5,141C 381.224,138.834 381.557,136.834 383.5,135C 381.859,133.354 382.193,132.354 384.5,132C 384.112,130.192 384.112,128.525 384.5,127C 387.68,121.56 390.68,116.56 393.5,112C 400.804,105.434 408.97,100.267 418,96.5C 420.28,96.7134 422.946,96.7134 426,96.5C 427.197,94.2084 428.863,93.8751 431,95.5C 437,92.8333 443,92.8333 449,95.5C 459.2,95.2332 469.034,98.3998 478.5,105C 481.491,107.931 484.657,110.765 488,113.5C 491.874,120.825 495.707,128.492 499.5,136.5 Z"/></g>
</svg>
