<?xml version="1.0" encoding="UTF-8" standalone="no"?>
<!DOCTYPE svg PUBLIC "-//W3C//DTD SVG 1.1//EN" "http://www.w3.org/Graphics/SVG/1.1/DTD/svg11.dtd">
<svg xmlns="http://www.w3.org/2000/svg" version="1.1" viewBox="0 0 1200 1200">
<path fill="#000000" d="
  M 946.03 518.49
  A 1.01 1.01 0.0 0 0 946.03 516.75
  L 600.67 317.09
  A 1.00 1.00 0.0 0 0 599.67 317.09
  L 254.56 517.02
  A 1.00 1.00 0.0 0 0 254.56 518.75
  L 300.72 545.51
  A 1.00 1.00 0.0 0 1 300.72 547.24
  L 237.94 583.80
  A 1.00 1.00 0.0 0 1 236.94 583.80
  L 127.07 520.42
  Q 126.10 519.85 125.34 518.98
  C 124.31 517.78 126.21 517.93 126.99 517.47
  Q 362.97 380.07 598.98 242.71
  A 1.00 0.98 34.6 0 1 599.67 242.59
  C 601.85 243.01 603.50 244.45 605.09 245.36
  Q 839.76 380.81 1074.42 516.31
  A 1.00 1.00 0.0 0 1 1074.42 518.04
  L 963.36 582.68
  A 1.00 1.00 0.0 0 1 962.36 582.68
  L 900.19 546.76
  A 1.00 1.00 0.0 0 1 900.19 545.03
  L 946.03 518.49
  Z"
/>
<path fill="#000000" d="
  M 256.68 803.83
  Q 191.33 766.11 125.98 728.39
  A 1.00 1.00 0.0 0 1 125.97 726.66
  Q 349.42 596.58 573.29 466.28
  Q 586.08 458.84 599.18 451.13
  A 1.02 1.01 -44.5 0 1 600.19 451.13
  L 1074.45 724.92
  A 0.80 0.79 52.4 0 0 1075.04 725.00
  Q 1075.29 724.94 1075.49 725.00
  Q 1076.67 725.32 1075.61 725.94
  Q 842.57 861.62 609.50 997.24
  Q 605.29 999.69 601.18 1002.28
  A 1.01 1.01 0.0 0 1 600.05 1002.24
  Q 599.84 1002.08 599.61 1001.95
  Q 428.17 902.84 256.68 803.83
  Z
  M 434.94 622.81
  Q 438.18 624.98 440.94 626.56
  Q 520.41 672.42 599.80 718.45
  A 1.00 1.00 0.0 0 0 600.80 718.45
  L 765.79 622.88
  A 1.00 1.00 0.0 0 0 765.79 621.15
  Q 683.90 573.81 602.01 526.50
  C 601.58 526.25 601.42 525.99 601.06 525.68
  A 1.00 1.00 0.0 0 0 599.90 525.57
  L 434.99 621.11
  A 1.00 1.00 0.0 0 0 434.94 622.81
  Z
  M 257.14 728.87
  Q 413.57 819.31 569.96 909.81
  Q 584.93 918.47 599.99 926.95
  A 1.00 0.99 44.2 0 0 600.98 926.94
  L 945.90 727.14
  A 1.00 0.99 46.8 0 0 945.95 725.45
  Q 944.74 724.63 942.76 723.49
  Q 887.52 691.47 832.20 659.61
  A 1.00 1.00 0.0 0 0 831.20 659.61
  L 601.16 793.52
  A 0.99 0.98 -45.3 0 1 600.16 793.53
  L 368.89 659.98
  A 1.00 1.00 0.0 0 0 367.89 659.98
  Q 312.11 692.30 256.00 724.76
  Q 255.91 724.81 255.06 725.26
  C 251.84 726.98 255.83 728.11 257.14 728.87
  Z"
/>
</svg>
