<svg xmlns="http://www.w3.org/2000/svg" xmlns:xlink="http://www.w3.org/1999/xlink" width="460" zoomAndPan="magnify" viewBox="0 0 345 93.749996" height="125" preserveAspectRatio="xMidYMid meet" version="1.0"><defs><g/><clipPath id="e6d932ea5b"><path d="M 3 1 L 117.894531 1 L 117.894531 42 L 3 42 Z M 3 1 " clip-rule="nonzero"/></clipPath><clipPath id="c47281b972"><path d="M 3 26 L 117.894531 26 L 117.894531 92.753906 L 3 92.753906 Z M 3 26 " clip-rule="nonzero"/></clipPath></defs><g clip-path="url(#e6d932ea5b)"><path fill="#000000" d="M 101.632812 34.125 C 101.671875 34.101562 101.691406 34.066406 101.691406 34.019531 C 101.691406 33.972656 101.671875 33.9375 101.632812 33.914062 L 60.300781 10.019531 C 60.257812 9.996094 60.21875 9.996094 60.179688 10.019531 L 18.875 33.949219 C 18.835938 33.96875 18.816406 34.003906 18.816406 34.050781 C 18.816406 34.097656 18.835938 34.132812 18.875 34.15625 L 24.402344 37.355469 C 24.441406 37.378906 24.460938 37.414062 24.460938 37.460938 C 24.460938 37.507812 24.441406 37.542969 24.402344 37.5625 L 16.886719 41.941406 C 16.847656 41.960938 16.808594 41.960938 16.765625 41.941406 L 3.617188 34.355469 C 3.539062 34.308594 3.472656 34.25 3.410156 34.183594 C 3.289062 34.039062 3.515625 34.054688 3.609375 34 C 22.4375 23.039062 41.265625 12.078125 60.097656 1.117188 C 60.121094 1.101562 60.148438 1.097656 60.179688 1.101562 C 60.441406 1.152344 60.636719 1.324219 60.828125 1.433594 C 79.550781 12.242188 98.273438 23.050781 116.996094 33.863281 C 117.039062 33.886719 117.058594 33.921875 117.058594 33.964844 C 117.058594 34.011719 117.039062 34.046875 116.996094 34.070312 L 103.707031 41.804688 C 103.667969 41.828125 103.625 41.828125 103.585938 41.804688 L 96.144531 37.507812 C 96.105469 37.484375 96.085938 37.449219 96.085938 37.402344 C 96.085938 37.355469 96.105469 37.324219 96.144531 37.300781 Z M 101.632812 34.125 " fill-opacity="1" fill-rule="nonzero"/></g><g clip-path="url(#c47281b972)"><path fill="#000000" d="M 19.128906 68.273438 C 13.914062 65.261719 8.703125 62.253906 3.488281 59.246094 C 3.449219 59.222656 3.425781 59.1875 3.425781 59.140625 C 3.425781 59.09375 3.445312 59.058594 3.488281 59.039062 C 21.316406 48.660156 39.160156 38.269531 57.023438 27.875 C 58.042969 27.28125 59.074219 26.675781 60.121094 26.0625 C 60.160156 26.039062 60.203125 26.039062 60.242188 26.0625 L 117 58.828125 C 117.023438 58.839844 117.046875 58.84375 117.070312 58.839844 C 117.09375 58.832031 117.109375 58.832031 117.125 58.839844 C 117.21875 58.863281 117.226562 58.902344 117.140625 58.949219 C 98.546875 69.777344 79.953125 80.601562 61.355469 91.421875 C 61.019531 91.617188 60.6875 91.816406 60.359375 92.023438 C 60.3125 92.050781 60.269531 92.050781 60.226562 92.019531 C 60.207031 92.007812 60.191406 91.996094 60.171875 91.984375 C 46.492188 84.078125 32.8125 76.171875 19.128906 68.273438 Z M 40.464844 46.609375 C 40.722656 46.78125 40.960938 46.929688 41.183594 47.058594 C 47.523438 50.714844 53.859375 54.382812 60.195312 58.054688 C 60.234375 58.078125 60.273438 58.078125 60.316406 58.054688 L 80.0625 46.617188 C 80.101562 46.59375 80.121094 46.558594 80.121094 46.511719 C 80.121094 46.46875 80.101562 46.433594 80.0625 46.410156 C 73.527344 42.632812 66.992188 38.855469 60.460938 35.082031 C 60.40625 35.050781 60.390625 35.019531 60.34375 34.984375 C 60.300781 34.945312 60.257812 34.941406 60.207031 34.96875 L 40.46875 46.40625 C 40.433594 46.425781 40.410156 46.460938 40.410156 46.503906 C 40.410156 46.550781 40.425781 46.582031 40.464844 46.609375 Z M 19.183594 59.300781 C 31.667969 66.519531 44.144531 73.734375 56.625 80.957031 C 57.816406 81.648438 59.015625 82.332031 60.21875 83.007812 C 60.257812 83.03125 60.296875 83.03125 60.335938 83.007812 L 101.617188 59.09375 C 101.65625 59.074219 101.675781 59.039062 101.675781 58.996094 C 101.675781 58.953125 101.660156 58.917969 101.621094 58.890625 C 101.527344 58.828125 101.398438 58.75 101.242188 58.65625 C 96.832031 56.101562 92.421875 53.554688 88.007812 51.011719 C 87.96875 50.988281 87.929688 50.988281 87.890625 51.011719 L 60.359375 67.039062 C 60.316406 67.0625 60.277344 67.0625 60.238281 67.039062 L 32.558594 51.058594 C 32.519531 51.035156 32.480469 51.035156 32.441406 51.058594 C 27.988281 53.636719 23.527344 56.21875 19.046875 58.808594 C 19.042969 58.8125 19.003906 58.832031 18.9375 58.871094 C 18.550781 59.074219 19.027344 59.210938 19.183594 59.300781 Z M 19.183594 59.300781 " fill-opacity="1" fill-rule="nonzero"/></g><g fill="#000000" fill-opacity="1"><g transform="translate(139.106101, 73.939116)"><g><path d="M 11.109375 -28.828125 L 21.640625 -28.828125 L 21.640625 -21.40625 L 11.109375 -21.40625 L 11.109375 0 L 2.96875 0 L 2.96875 -51.859375 L 24.53125 -51.859375 L 24.53125 -44.453125 L 11.109375 -44.453125 Z M 11.109375 -28.828125 "/></g></g></g><g fill="#000000" fill-opacity="1"><g transform="translate(168.740734, 73.939116)"><g><path d="M 29.34375 0 L 21.109375 0 L 19.703125 -9.40625 L 9.703125 -9.40625 L 8.296875 0 L 0.8125 0 L 9.109375 -51.859375 L 21.046875 -51.859375 Z M 10.75 -16.453125 L 18.59375 -16.453125 L 14.671875 -42.671875 Z M 10.75 -16.453125 "/></g></g></g><g fill="#000000" fill-opacity="1"><g transform="translate(203.042732, 73.939116)"><g><path d="M 1.921875 -39.421875 C 1.921875 -43.617188 2.921875 -46.835938 4.921875 -49.078125 C 6.921875 -51.328125 9.921875 -52.453125 13.921875 -52.453125 C 17.929688 -52.453125 20.9375 -51.328125 22.9375 -49.078125 C 24.9375 -46.835938 25.9375 -43.617188 25.9375 -39.421875 L 25.9375 -37.78125 L 18.234375 -37.78125 L 18.234375 -39.9375 C 18.234375 -41.8125 17.875 -43.128906 17.15625 -43.890625 C 16.4375 -44.660156 15.4375 -45.046875 14.15625 -45.046875 C 12.863281 -45.046875 11.859375 -44.660156 11.140625 -43.890625 C 10.429688 -43.128906 10.078125 -41.8125 10.078125 -39.9375 C 10.078125 -38.15625 10.472656 -36.582031 11.265625 -35.21875 C 12.054688 -33.863281 13.039062 -32.582031 14.21875 -31.375 C 15.40625 -30.164062 16.675781 -28.957031 18.03125 -27.75 C 19.394531 -26.539062 20.671875 -25.21875 21.859375 -23.78125 C 23.046875 -22.351562 24.03125 -20.722656 24.8125 -18.890625 C 25.601562 -17.066406 26 -14.921875 26 -12.453125 C 26 -8.253906 24.972656 -5.03125 22.921875 -2.78125 C 20.878906 -0.53125 17.859375 0.59375 13.859375 0.59375 C 9.859375 0.59375 6.832031 -0.53125 4.78125 -2.78125 C 2.726562 -5.03125 1.703125 -8.253906 1.703125 -12.453125 L 1.703125 -15.640625 L 9.40625 -15.640625 L 9.40625 -11.921875 C 9.40625 -10.046875 9.785156 -8.738281 10.546875 -8 C 11.316406 -7.257812 12.347656 -6.890625 13.640625 -6.890625 C 14.921875 -6.890625 15.941406 -7.257812 16.703125 -8 C 17.472656 -8.738281 17.859375 -10.046875 17.859375 -11.921875 C 17.859375 -13.703125 17.460938 -15.269531 16.671875 -16.625 C 15.878906 -17.988281 14.890625 -19.273438 13.703125 -20.484375 C 12.515625 -21.691406 11.242188 -22.898438 9.890625 -24.109375 C 8.535156 -25.328125 7.265625 -26.648438 6.078125 -28.078125 C 4.890625 -29.515625 3.898438 -31.144531 3.109375 -32.96875 C 2.316406 -34.800781 1.921875 -36.953125 1.921875 -39.421875 Z M 1.921875 -39.421875 "/></g></g></g><g fill="#000000" fill-opacity="1"><g transform="translate(234.899914, 73.939116)"><g><path d="M 0.59375 -51.859375 L 25.78125 -51.859375 L 25.78125 -44.453125 L 17.265625 -44.453125 L 17.265625 0 L 9.109375 0 L 9.109375 -44.453125 L 0.59375 -44.453125 Z M 0.59375 -51.859375 "/></g></g></g><g fill="#000000" fill-opacity="1"><g transform="translate(265.423566, 73.939116)"><g><path d="M 2.96875 -51.859375 L 11.109375 -51.859375 L 11.109375 0 L 2.96875 0 Z M 2.96875 -51.859375 "/></g></g></g><g fill="#000000" fill-opacity="1"><g transform="translate(283.649052, 73.939116)"><g><path d="M 11.109375 -28.828125 L 21.640625 -28.828125 L 21.640625 -21.40625 L 11.109375 -21.40625 L 11.109375 0 L 2.96875 0 L 2.96875 -51.859375 L 24.53125 -51.859375 L 24.53125 -44.453125 L 11.109375 -44.453125 Z M 11.109375 -28.828125 "/></g></g></g><g fill="#000000" fill-opacity="1"><g transform="translate(313.283684, 73.939116)"><g><path d="M 10.59375 -17.1875 L 0.296875 -51.859375 L 8.8125 -51.859375 L 15.046875 -28.234375 L 21.265625 -51.859375 L 29.046875 -51.859375 L 18.75 -17.1875 L 18.75 0 L 10.59375 0 Z M 10.59375 -17.1875 "/></g></g></g></svg>