<svg xmlns="http://www.w3.org/2000/svg" xmlns:xlink="http://www.w3.org/1999/xlink" width="460" zoomAndPan="magnify" viewBox="0 0 345 93.749996" height="125" preserveAspectRatio="xMidYMid meet" version="1.0"><defs><g/><clipPath id="7426825812"><path d="M 3 1 L 117.894531 1 L 117.894531 43 L 3 43 Z M 3 1 " clip-rule="nonzero"/></clipPath><clipPath id="f88f9d69da"><path d="M 3 26 L 117.894531 26 L 117.894531 92.753906 L 3 92.753906 Z M 3 26 " clip-rule="nonzero"/></clipPath></defs><g clip-path="url(#7426825812)"><path fill="#ffffff" d="M 101.839844 34.269531 C 101.878906 34.246094 101.898438 34.210938 101.898438 34.167969 C 101.898438 34.121094 101.878906 34.085938 101.839844 34.0625 L 60.4375 10.128906 C 60.398438 10.105469 60.359375 10.105469 60.320312 10.128906 L 18.949219 34.09375 C 18.910156 34.117188 18.890625 34.152344 18.890625 34.199219 C 18.890625 34.242188 18.910156 34.277344 18.949219 34.300781 L 24.480469 37.507812 C 24.523438 37.53125 24.542969 37.566406 24.542969 37.613281 C 24.542969 37.660156 24.523438 37.695312 24.480469 37.71875 L 16.957031 42.101562 C 16.917969 42.121094 16.875 42.121094 16.835938 42.101562 L 3.664062 34.5 C 3.589844 34.457031 3.519531 34.398438 3.457031 34.328125 C 3.335938 34.183594 3.5625 34.203125 3.65625 34.148438 C 22.515625 23.167969 41.375 12.1875 60.238281 1.210938 C 60.261719 1.195312 60.289062 1.191406 60.320312 1.195312 C 60.582031 1.246094 60.777344 1.417969 60.96875 1.527344 C 79.722656 12.355469 98.476562 23.179688 117.230469 34.007812 C 117.269531 34.03125 117.289062 34.066406 117.289062 34.113281 C 117.289062 34.160156 117.269531 34.195312 117.230469 34.214844 L 103.917969 41.964844 C 103.875 41.988281 103.835938 41.988281 103.796875 41.964844 L 96.34375 37.660156 C 96.304688 37.636719 96.285156 37.601562 96.285156 37.554688 C 96.285156 37.507812 96.304688 37.476562 96.34375 37.453125 Z M 101.839844 34.269531 " fill-opacity="1" fill-rule="nonzero"/></g><g clip-path="url(#f88f9d69da)"><path fill="#ffffff" d="M 19.203125 68.476562 C 13.980469 65.460938 8.757812 62.445312 3.535156 59.433594 C 3.496094 59.410156 3.476562 59.375 3.476562 59.328125 C 3.476562 59.28125 3.496094 59.25 3.535156 59.226562 C 21.390625 48.828125 39.265625 38.425781 57.15625 28.011719 C 58.179688 27.417969 59.214844 26.8125 60.261719 26.195312 C 60.300781 26.171875 60.339844 26.171875 60.382812 26.195312 L 117.234375 59.015625 C 117.257812 59.027344 117.28125 59.03125 117.304688 59.027344 C 117.324219 59.019531 117.34375 59.019531 117.359375 59.027344 C 117.453125 59.050781 117.457031 59.089844 117.371094 59.140625 C 98.75 69.980469 80.125 80.824219 61.496094 91.660156 C 61.160156 91.855469 60.828125 92.058594 60.5 92.265625 C 60.453125 92.292969 60.410156 92.292969 60.363281 92.261719 C 60.347656 92.246094 60.332031 92.234375 60.3125 92.226562 C 46.609375 84.304688 32.90625 76.386719 19.203125 68.476562 Z M 40.570312 46.777344 C 40.832031 46.949219 41.070312 47.097656 41.292969 47.226562 C 47.640625 50.890625 53.988281 54.5625 60.335938 58.242188 C 60.375 58.265625 60.414062 58.265625 60.453125 58.242188 L 80.234375 46.785156 C 80.273438 46.761719 80.292969 46.726562 80.292969 46.679688 C 80.292969 46.632812 80.273438 46.601562 80.234375 46.578125 C 73.6875 42.792969 67.144531 39.011719 60.601562 35.230469 C 60.546875 35.199219 60.527344 35.167969 60.484375 35.132812 C 60.441406 35.09375 60.394531 35.089844 60.347656 35.121094 L 40.578125 46.570312 C 40.539062 46.59375 40.519531 46.628906 40.519531 46.671875 C 40.515625 46.71875 40.535156 46.75 40.570312 46.777344 Z M 19.257812 59.488281 C 31.757812 66.71875 44.257812 73.949219 56.757812 81.179688 C 57.953125 81.871094 59.152344 82.558594 60.359375 83.234375 C 60.398438 83.257812 60.4375 83.257812 60.476562 83.234375 L 101.824219 59.28125 C 101.863281 59.261719 101.882812 59.226562 101.882812 59.183594 C 101.882812 59.140625 101.867188 59.105469 101.828125 59.078125 C 101.734375 59.015625 101.605469 58.9375 101.449219 58.84375 C 97.03125 56.285156 92.613281 53.734375 88.195312 51.1875 C 88.152344 51.164062 88.113281 51.164062 88.074219 51.1875 L 60.496094 67.238281 C 60.457031 67.265625 60.417969 67.265625 60.378906 67.242188 L 32.65625 51.230469 C 32.613281 51.207031 32.574219 51.207031 32.535156 51.230469 C 28.078125 53.816406 23.605469 56.402344 19.121094 58.996094 C 19.113281 59 19.078125 59.019531 19.007812 59.058594 C 18.621094 59.261719 19.101562 59.398438 19.257812 59.488281 Z M 19.257812 59.488281 " fill-opacity="1" fill-rule="nonzero"/></g><g fill="#ffffff" fill-opacity="1"><g transform="translate(139.106101, 73.939116)"><g><path d="M 11.109375 -28.828125 L 21.640625 -28.828125 L 21.640625 -21.40625 L 11.109375 -21.40625 L 11.109375 0 L 2.96875 0 L 2.96875 -51.859375 L 24.53125 -51.859375 L 24.53125 -44.453125 L 11.109375 -44.453125 Z M 11.109375 -28.828125 "/></g></g></g><g fill="#ffffff" fill-opacity="1"><g transform="translate(168.740734, 73.939116)"><g><path d="M 29.34375 0 L 21.109375 0 L 19.703125 -9.40625 L 9.703125 -9.40625 L 8.296875 0 L 0.8125 0 L 9.109375 -51.859375 L 21.046875 -51.859375 Z M 10.75 -16.453125 L 18.59375 -16.453125 L 14.671875 -42.671875 Z M 10.75 -16.453125 "/></g></g></g><g fill="#ffffff" fill-opacity="1"><g transform="translate(203.042732, 73.939116)"><g><path d="M 1.921875 -39.421875 C 1.921875 -43.617188 2.921875 -46.835938 4.921875 -49.078125 C 6.921875 -51.328125 9.921875 -52.453125 13.921875 -52.453125 C 17.929688 -52.453125 20.9375 -51.328125 22.9375 -49.078125 C 24.9375 -46.835938 25.9375 -43.617188 25.9375 -39.421875 L 25.9375 -37.78125 L 18.234375 -37.78125 L 18.234375 -39.9375 C 18.234375 -41.8125 17.875 -43.128906 17.15625 -43.890625 C 16.4375 -44.660156 15.4375 -45.046875 14.15625 -45.046875 C 12.863281 -45.046875 11.859375 -44.660156 11.140625 -43.890625 C 10.429688 -43.128906 10.078125 -41.8125 10.078125 -39.9375 C 10.078125 -38.15625 10.472656 -36.582031 11.265625 -35.21875 C 12.054688 -33.863281 13.039062 -32.582031 14.21875 -31.375 C 15.40625 -30.164062 16.675781 -28.957031 18.03125 -27.75 C 19.394531 -26.539062 20.671875 -25.21875 21.859375 -23.78125 C 23.046875 -22.351562 24.03125 -20.722656 24.8125 -18.890625 C 25.601562 -17.066406 26 -14.921875 26 -12.453125 C 26 -8.253906 24.972656 -5.03125 22.921875 -2.78125 C 20.878906 -0.53125 17.859375 0.59375 13.859375 0.59375 C 9.859375 0.59375 6.832031 -0.53125 4.78125 -2.78125 C 2.726562 -5.03125 1.703125 -8.253906 1.703125 -12.453125 L 1.703125 -15.640625 L 9.40625 -15.640625 L 9.40625 -11.921875 C 9.40625 -10.046875 9.785156 -8.738281 10.546875 -8 C 11.316406 -7.257812 12.347656 -6.890625 13.640625 -6.890625 C 14.921875 -6.890625 15.941406 -7.257812 16.703125 -8 C 17.472656 -8.738281 17.859375 -10.046875 17.859375 -11.921875 C 17.859375 -13.703125 17.460938 -15.269531 16.671875 -16.625 C 15.878906 -17.988281 14.890625 -19.273438 13.703125 -20.484375 C 12.515625 -21.691406 11.242188 -22.898438 9.890625 -24.109375 C 8.535156 -25.328125 7.265625 -26.648438 6.078125 -28.078125 C 4.890625 -29.515625 3.898438 -31.144531 3.109375 -32.96875 C 2.316406 -34.800781 1.921875 -36.953125 1.921875 -39.421875 Z M 1.921875 -39.421875 "/></g></g></g><g fill="#ffffff" fill-opacity="1"><g transform="translate(234.899914, 73.939116)"><g><path d="M 0.59375 -51.859375 L 25.78125 -51.859375 L 25.78125 -44.453125 L 17.265625 -44.453125 L 17.265625 0 L 9.109375 0 L 9.109375 -44.453125 L 0.59375 -44.453125 Z M 0.59375 -51.859375 "/></g></g></g><g fill="#ffffff" fill-opacity="1"><g transform="translate(265.423566, 73.939116)"><g><path d="M 2.96875 -51.859375 L 11.109375 -51.859375 L 11.109375 0 L 2.96875 0 Z M 2.96875 -51.859375 "/></g></g></g><g fill="#ffffff" fill-opacity="1"><g transform="translate(283.649052, 73.939116)"><g><path d="M 11.109375 -28.828125 L 21.640625 -28.828125 L 21.640625 -21.40625 L 11.109375 -21.40625 L 11.109375 0 L 2.96875 0 L 2.96875 -51.859375 L 24.53125 -51.859375 L 24.53125 -44.453125 L 11.109375 -44.453125 Z M 11.109375 -28.828125 "/></g></g></g><g fill="#ffffff" fill-opacity="1"><g transform="translate(313.283684, 73.939116)"><g><path d="M 10.59375 -17.1875 L 0.296875 -51.859375 L 8.8125 -51.859375 L 15.046875 -28.234375 L 21.265625 -51.859375 L 29.046875 -51.859375 L 18.75 -17.1875 L 18.75 0 L 10.59375 0 Z M 10.59375 -17.1875 "/></g></g></g></svg>