<svg xmlns="http://www.w3.org/2000/svg" xmlns:xlink="http://www.w3.org/1999/xlink" width="1920" zoomAndPan="magnify" viewBox="0 0 1440 449.999984" height="600" preserveAspectRatio="xMidYMid meet" version="1.2"><defs><clipPath id="8885a75615"><path d="M 1070.378906 15.75 L 1439 15.75 L 1439 366.613281 L 1070.378906 366.613281 Z M 1070.378906 15.75 "/></clipPath><clipPath id="18e9d543ce"><path d="M 1254.441406 15.75 L 1297.890625 149.769531 L 1438.5 149.769531 L 1324.746094 232.597656 L 1368.195312 366.613281 L 1254.441406 283.785156 L 1140.683594 366.613281 L 1184.136719 232.597656 L 1070.378906 149.769531 L 1210.988281 149.769531 Z M 1254.441406 15.75 "/></clipPath></defs><g id="f957ad86d0"><rect x="0" width="1440" y="0" height="449.999984" style="fill:#ffffff;fill-opacity:1;stroke:none;"/><rect x="0" width="1440" y="0" height="449.999984" style="fill:#ffffff;fill-opacity:1;stroke:none;"/><g style="fill:#000000;fill-opacity:1;"><g transform="translate(-1.499974, 356.537811)"><path style="stroke:none" d="M 123.109375 -283.34375 L 123.109375 -239.171875 L 108.640625 -239.171875 C 102.910156 -239.171875 98.675781 -238.710938 95.9375 -237.796875 C 93.207031 -236.890625 91.320312 -235.066406 90.28125 -232.328125 C 89.238281 -229.597656 88.71875 -225.109375 88.71875 -218.859375 L 88.71875 -207.90625 L 124.28125 -207.90625 L 124.28125 -168.828125 L 88.71875 -168.828125 L 88.71875 0 L 34 0 L 34 -168.828125 L 3.90625 -168.828125 L 3.90625 -207.90625 L 34 -207.90625 L 34 -224.328125 C 34 -245.171875 39.078125 -260.347656 49.234375 -269.859375 C 59.398438 -279.367188 75.296875 -284.125 96.921875 -284.125 C 102.390625 -284.125 111.117188 -283.863281 123.109375 -283.34375 Z M 123.109375 -283.34375 "/></g></g><g style="fill:#000000;fill-opacity:1;"><g transform="translate(116.91562, 356.537811)"><path style="stroke:none" d="M 205.953125 -8.203125 L 205.953125 0 L 146.953125 0 C 143.816406 -9.113281 142.117188 -17.320312 141.859375 -24.625 C 131.960938 -13.9375 121.671875 -6.25 110.984375 -1.5625 C 100.304688 3.125 88.191406 5.46875 74.640625 5.46875 C 55.617188 5.46875 40.3125 0 28.71875 -10.9375 C 17.125 -21.882812 11.328125 -36.609375 11.328125 -55.109375 C 11.328125 -72.554688 16.082031 -87.078125 25.59375 -98.671875 C 35.101562 -110.273438 52.101562 -118.160156 76.59375 -122.328125 L 115.6875 -128.1875 C 125.582031 -129.75 132.15625 -131.703125 135.40625 -134.046875 C 138.664062 -136.390625 140.296875 -140.296875 140.296875 -145.765625 C 140.296875 -153.585938 137.492188 -159.515625 131.890625 -163.546875 C 126.296875 -167.585938 117.113281 -169.609375 104.34375 -169.609375 C 83.757812 -169.609375 72.554688 -159.96875 70.734375 -140.6875 L 17.984375 -140.6875 C 20.066406 -164.394531 28.078125 -182.4375 42.015625 -194.8125 C 55.953125 -207.195312 78.421875 -213.390625 109.421875 -213.390625 C 136.003906 -213.390625 156.71875 -208.175781 171.5625 -197.75 C 186.414062 -187.332031 193.84375 -173.003906 193.84375 -154.765625 L 193.84375 -38.6875 C 193.84375 -29.050781 194.816406 -21.953125 196.765625 -17.390625 C 198.722656 -12.828125 201.785156 -9.765625 205.953125 -8.203125 Z M 140.296875 -75.421875 L 140.296875 -101.21875 C 135.609375 -98.351562 130.53125 -96.070312 125.0625 -94.375 C 119.59375 -92.6875 111.644531 -91.0625 101.21875 -89.5 C 89.5 -87.9375 80.707031 -84.742188 74.84375 -79.921875 C 68.976562 -75.097656 66.046875 -68 66.046875 -58.625 C 66.046875 -51.0625 68.390625 -45 73.078125 -40.4375 C 77.765625 -35.882812 83.890625 -33.609375 91.453125 -33.609375 C 99.523438 -33.609375 107.335938 -35.363281 114.890625 -38.875 C 122.453125 -42.394531 128.578125 -47.347656 133.265625 -53.734375 C 137.953125 -60.117188 140.296875 -67.347656 140.296875 -75.421875 Z M 140.296875 -75.421875 "/></g></g><g style="fill:#000000;fill-opacity:1;"><g transform="translate(322.482151, 356.537811)"><path style="stroke:none" d="M 196.578125 -144.59375 L 143.03125 -144.59375 C 141.46875 -154.757812 137.753906 -161.859375 131.890625 -165.890625 C 126.035156 -169.929688 117.375 -171.953125 105.90625 -171.953125 C 94.96875 -171.953125 86.695312 -170.390625 81.09375 -167.265625 C 75.488281 -164.140625 72.6875 -158.929688 72.6875 -151.640625 C 72.6875 -145.898438 76.851562 -141.335938 85.1875 -137.953125 C 93.53125 -134.566406 106.953125 -131.179688 125.453125 -127.796875 C 154.109375 -122.328125 174.164062 -114.640625 185.625 -104.734375 C 197.09375 -94.835938 202.828125 -82.070312 202.828125 -66.4375 C 202.828125 -42.207031 194.296875 -24.164062 177.234375 -12.3125 C 160.171875 -0.457031 137.957031 5.46875 110.59375 5.46875 C 80.113281 5.46875 56.015625 -0.976562 38.296875 -13.875 C 20.578125 -26.769531 11.71875 -44.289062 11.71875 -66.4375 L 68 -66.4375 C 68 -46.113281 82.976562 -35.953125 112.9375 -35.953125 C 123.625 -35.953125 132.160156 -37.96875 138.546875 -42 C 144.929688 -46.039062 148.125 -51.191406 148.125 -57.453125 C 148.125 -63.703125 144.019531 -68.519531 135.8125 -71.90625 C 127.601562 -75.289062 112.945312 -78.941406 91.84375 -82.859375 C 67.351562 -87.285156 49.113281 -94.382812 37.125 -104.15625 C 25.144531 -113.925781 19.15625 -127.144531 19.15625 -143.8125 C 19.15625 -164.65625 26.578125 -181.460938 41.421875 -194.234375 C 56.273438 -207.003906 76.859375 -213.390625 103.171875 -213.390625 C 133.660156 -213.390625 156.523438 -207.394531 171.765625 -195.40625 C 187.003906 -183.414062 195.273438 -166.476562 196.578125 -144.59375 Z M 196.578125 -144.59375 "/></g></g><g style="fill:#000000;fill-opacity:1;"><g transform="translate(528.048683, 356.537811)"><path style="stroke:none" d="M 120.765625 -207.90625 L 120.765625 -168.828125 L 86.765625 -168.828125 L 86.765625 -52.765625 C 86.765625 -47.285156 88.257812 -43.632812 91.25 -41.8125 C 94.25 -39.988281 100.175781 -39.078125 109.03125 -39.078125 C 111.113281 -39.078125 115.023438 -39.335938 120.765625 -39.859375 L 120.765625 1.5625 C 106.171875 2.082031 96.398438 2.34375 91.453125 2.34375 C 74.773438 2.34375 62.132812 0.585938 53.53125 -2.921875 C 44.9375 -6.441406 39.207031 -11.394531 36.34375 -17.78125 C 33.476562 -24.164062 32.046875 -32.566406 32.046875 -42.984375 L 32.046875 -168.828125 L 3.90625 -168.828125 L 3.90625 -207.90625 L 32.046875 -207.90625 L 32.046875 -264.1875 L 86.765625 -264.1875 L 86.765625 -207.90625 Z M 120.765625 -207.90625 "/></g></g><g style="fill:#000000;fill-opacity:1;"><g transform="translate(646.464277, 356.537811)"><path style="stroke:none" d="M 26.96875 -232.53125 L 26.96875 -283.34375 L 81.6875 -283.34375 L 81.6875 -232.53125 Z M 26.96875 0 L 26.96875 -207.90625 L 81.6875 -207.90625 L 81.6875 0 Z M 26.96875 0 "/></g></g><g style="fill:#000000;fill-opacity:1;"><g transform="translate(743.385218, 356.537811)"><path style="stroke:none" d="M 123.109375 -283.34375 L 123.109375 -239.171875 L 108.640625 -239.171875 C 102.910156 -239.171875 98.675781 -238.710938 95.9375 -237.796875 C 93.207031 -236.890625 91.320312 -235.066406 90.28125 -232.328125 C 89.238281 -229.597656 88.71875 -225.109375 88.71875 -218.859375 L 88.71875 -207.90625 L 124.28125 -207.90625 L 124.28125 -168.828125 L 88.71875 -168.828125 L 88.71875 0 L 34 0 L 34 -168.828125 L 3.90625 -168.828125 L 3.90625 -207.90625 L 34 -207.90625 L 34 -224.328125 C 34 -245.171875 39.078125 -260.347656 49.234375 -269.859375 C 59.398438 -279.367188 75.296875 -284.125 96.921875 -284.125 C 102.390625 -284.125 111.117188 -283.863281 123.109375 -283.34375 Z M 123.109375 -283.34375 "/></g></g><g style="fill:#000000;fill-opacity:1;"><g transform="translate(861.800811, 356.537811)"><path style="stroke:none" d="M 110.203125 -54.71875 L 152.8125 -207.90625 L 210.640625 -207.90625 L 137.5625 2.734375 C 130.53125 22.535156 124.019531 38.953125 118.03125 51.984375 C 114.375 59.535156 110.394531 65.585938 106.09375 70.140625 C 101.800781 74.703125 96.070312 78.09375 88.90625 80.3125 C 81.738281 82.53125 72.164062 83.640625 60.1875 83.640625 C 55.757812 83.640625 47.03125 83.378906 34 82.859375 L 34 39.078125 L 47.671875 39.859375 C 58.359375 39.859375 65.914062 37.578125 70.34375 33.015625 C 74.769531 28.460938 78.15625 20.320312 80.5 8.59375 L 3.90625 -207.90625 L 64.875 -207.90625 L 109.421875 -54.71875 Z M 110.203125 -54.71875 "/></g></g><g clip-rule="nonzero" clip-path="url(#8885a75615)"><g clip-rule="nonzero" clip-path="url(#18e9d543ce)"><path style=" stroke:none;fill-rule:nonzero;fill:#000000;fill-opacity:1;" d="M 1070.378906 15.75 L 1439.0625 15.75 L 1439.0625 366.613281 L 1070.378906 366.613281 Z M 1070.378906 15.75 "/></g></g></g></svg>