<svg xmlns="http://www.w3.org/2000/svg" xmlns:xlink="http://www.w3.org/1999/xlink" width="2160" zoomAndPan="magnify" viewBox="0 0 1620 1295.99994" height="1728" preserveAspectRatio="xMidYMid meet" version="1.0"><defs><clipPath id="73efafe6ba"><path d="M 1434 1120 L 1527 1120 L 1527 1200.320312 L 1434 1200.320312 Z M 1434 1120 " clip-rule="nonzero"/></clipPath><clipPath id="a597e36c56"><path d="M 1110 1120 L 1203 1120 L 1203 1200.320312 L 1110 1200.320312 Z M 1110 1120 " clip-rule="nonzero"/></clipPath><clipPath id="3dcc0794f7"><path d="M 555 1120 L 649 1120 L 649 1200.320312 L 555 1200.320312 Z M 555 1120 " clip-rule="nonzero"/></clipPath><clipPath id="22c86e7fc9"><path d="M 1329.460938 0 L 1620 0 L 1620 11.03125 L 1329.460938 11.03125 Z M 1329.460938 0 " clip-rule="nonzero"/></clipPath></defs><path fill="#26a9e0" d="M 925.613281 79.613281 L 879.40625 -0.429688 L 833.175781 79.613281 Z M 925.613281 79.613281 " fill-opacity="0.06" fill-rule="nonzero"/><path fill="#652d90" d="M 786.945312 -0.429688 L 833.175781 79.613281 L 879.40625 -0.429688 Z M 786.945312 -0.429688 " fill-opacity="0.29" fill-rule="nonzero"/><path fill="#652d90" d="M 694.503906 -0.429688 L 740.738281 79.613281 L 786.945312 -0.429688 Z M 694.503906 -0.429688 " fill-opacity="0.23" fill-rule="nonzero"/><path fill="#26a9e0" d="M 648.296875 79.613281 L 602.089844 -0.429688 L 555.859375 79.613281 Z M 648.296875 79.613281 " fill-opacity="0.52" fill-rule="nonzero"/><path fill="#652d90" d="M 509.652344 -0.429688 L 555.859375 79.613281 L 602.089844 -0.429688 Z M 509.652344 -0.429688 " fill-opacity="0.57" fill-rule="nonzero"/><path fill="#652d90" d="M 555.859375 79.613281 L 509.652344 -0.429688 L 463.417969 79.613281 Z M 555.859375 79.613281 " fill-opacity="0.48" fill-rule="nonzero"/><path fill="#26a9e0" d="M 324.773438 -0.429688 L 371.003906 79.613281 L 417.210938 -0.429688 Z M 324.773438 -0.429688 " fill-opacity="0.32" fill-rule="nonzero"/><path fill="#26a9e0" d="M 371.003906 79.613281 L 324.773438 -0.429688 L 278.566406 79.613281 Z M 371.003906 79.613281 " fill-opacity="0.32" fill-rule="nonzero"/><path fill="#652d90" d="M 232.332031 -0.429688 L 278.566406 79.613281 L 324.773438 -0.429688 Z M 232.332031 -0.429688 " fill-opacity="0.33" fill-rule="nonzero"/><path fill="#26a9e0" d="M 278.566406 79.613281 L 232.332031 -0.429688 L 186.101562 79.613281 Z M 278.566406 79.613281 " fill-opacity="0.28" fill-rule="nonzero"/><path fill="#652d90" d="M 139.894531 -0.429688 L 186.101562 79.613281 L 232.332031 -0.429688 Z M 139.894531 -0.429688 " fill-opacity="0.32" fill-rule="nonzero"/><path fill="#26a9e0" d="M 186.101562 79.613281 L 139.894531 -0.429688 L 93.664062 79.613281 Z M 186.101562 79.613281 " fill-opacity="0.24" fill-rule="nonzero"/><path fill="#26a9e0" d="M 47.457031 -0.429688 L 93.664062 79.613281 L 139.894531 -0.429688 Z M 47.457031 -0.429688 " fill-opacity="0.03" fill-rule="nonzero"/><path fill="#26a9e0" d="M 1156.726562 159.675781 L 1110.492188 79.613281 L 1064.285156 159.675781 Z M 1156.726562 159.675781 " fill-opacity="0.1" fill-rule="nonzero"/><path fill="#652d90" d="M 1018.054688 79.613281 L 1064.285156 159.675781 L 1110.492188 79.613281 Z M 1018.054688 79.613281 " fill-opacity="0.46" fill-rule="nonzero"/><path fill="#652d90" d="M 1064.285156 159.675781 L 1018.054688 79.613281 L 971.824219 159.675781 Z M 1064.285156 159.675781 " fill-opacity="0.17" fill-rule="nonzero"/><path fill="#652d90" d="M 925.613281 79.613281 L 971.824219 159.675781 L 1018.054688 79.613281 Z M 925.613281 79.613281 " fill-opacity="0.38" fill-rule="nonzero"/><path fill="#26a9e0" d="M 971.824219 159.675781 L 925.613281 79.613281 L 879.40625 159.675781 Z M 971.824219 159.675781 " fill-opacity="0.08" fill-rule="nonzero"/><path fill="#26a9e0" d="M 833.175781 79.613281 L 879.40625 159.675781 L 925.613281 79.613281 Z M 833.175781 79.613281 " fill-opacity="0.18" fill-rule="nonzero"/><path fill="#652d90" d="M 879.40625 159.675781 L 833.175781 79.613281 L 786.945312 159.675781 Z M 879.40625 159.675781 " fill-opacity="0.4" fill-rule="nonzero"/><path fill="#652d90" d="M 740.738281 79.613281 L 786.945312 159.675781 L 833.175781 79.613281 Z M 740.738281 79.613281 " fill-opacity="0.35" fill-rule="nonzero"/><path fill="#26a9e0" d="M 786.945312 159.675781 L 740.738281 79.613281 L 694.503906 159.675781 Z M 786.945312 159.675781 " fill-opacity="0.31" fill-rule="nonzero"/><path fill="#652d90" d="M 648.296875 79.613281 L 694.503906 159.675781 L 740.738281 79.613281 Z M 648.296875 79.613281 " fill-opacity="0.38" fill-rule="nonzero"/><path fill="#652d90" d="M 694.503906 159.675781 L 648.296875 79.613281 L 602.089844 159.675781 Z M 694.503906 159.675781 " fill-opacity="0.41" fill-rule="nonzero"/><path fill="#652d90" d="M 555.859375 79.613281 L 602.089844 159.675781 L 648.296875 79.613281 Z M 555.859375 79.613281 " fill-opacity="0.5" fill-rule="nonzero"/><path fill="#26a9e0" d="M 602.089844 159.675781 L 555.859375 79.613281 L 509.652344 159.675781 Z M 602.089844 159.675781 " fill-opacity="0.54" fill-rule="nonzero"/><path fill="#26a9e0" d="M 463.417969 79.613281 L 509.652344 159.675781 L 555.859375 79.613281 Z M 463.417969 79.613281 " fill-opacity="0.41" fill-rule="nonzero"/><path fill="#26a9e0" d="M 509.652344 159.675781 L 463.417969 79.613281 L 417.210938 159.675781 Z M 509.652344 159.675781 " fill-opacity="0.37" fill-rule="nonzero"/><path fill="#26a9e0" d="M 371.003906 79.613281 L 417.210938 159.675781 L 463.417969 79.613281 Z M 371.003906 79.613281 " fill-opacity="0.35" fill-rule="nonzero"/><path fill="#652d90" d="M 417.210938 159.675781 L 371.003906 79.613281 L 324.773438 159.675781 Z M 417.210938 159.675781 " fill-opacity="0.35" fill-rule="nonzero"/><path fill="#26a9e0" d="M 278.566406 79.613281 L 324.773438 159.675781 L 371.003906 79.613281 Z M 278.566406 79.613281 " fill-opacity="0.33" fill-rule="nonzero"/><path fill="#652d90" d="M 324.773438 159.675781 L 278.566406 79.613281 L 232.332031 159.675781 Z M 324.773438 159.675781 " fill-opacity="0.29" fill-rule="nonzero"/><path fill="#26a9e0" d="M 186.101562 79.613281 L 232.332031 159.675781 L 278.566406 79.613281 Z M 186.101562 79.613281 " fill-opacity="0.24" fill-rule="nonzero"/><path fill="#26a9e0" d="M 232.332031 159.675781 L 186.101562 79.613281 L 139.894531 159.675781 Z M 232.332031 159.675781 " fill-opacity="0.28" fill-rule="nonzero"/><path fill="#652d90" d="M 139.894531 159.675781 L 93.664062 79.613281 L 47.457031 159.675781 Z M 139.894531 159.675781 " fill-opacity="0.07" fill-rule="nonzero"/><path fill="#652d90" d="M 1295.371094 239.71875 L 1249.164062 159.675781 L 1202.933594 239.71875 Z M 1295.371094 239.71875 " fill-opacity="0.01" fill-rule="nonzero"/><path fill="#26a9e0" d="M 1156.726562 159.675781 L 1202.933594 239.71875 L 1249.164062 159.675781 Z M 1156.726562 159.675781 " fill-opacity="0.04" fill-rule="nonzero"/><path fill="#26a9e0" d="M 1202.933594 239.71875 L 1156.726562 159.675781 L 1110.492188 239.71875 Z M 1202.933594 239.71875 " fill-opacity="0.25" fill-rule="nonzero"/><path fill="#26a9e0" d="M 1064.285156 159.675781 L 1110.492188 239.71875 L 1156.726562 159.675781 Z M 1064.285156 159.675781 " fill-opacity="0.3" fill-rule="nonzero"/><path fill="#652d90" d="M 1110.492188 239.71875 L 1064.285156 159.675781 L 1018.054688 239.71875 Z M 1110.492188 239.71875 " fill-opacity="0.33" fill-rule="nonzero"/><path fill="#652d90" d="M 971.824219 159.675781 L 1018.054688 239.71875 L 1064.285156 159.675781 Z M 971.824219 159.675781 " fill-opacity="0.32" fill-rule="nonzero"/><path fill="#652d90" d="M 879.40625 159.675781 L 925.613281 239.71875 L 971.824219 159.675781 Z M 879.40625 159.675781 " fill-opacity="0.53" fill-rule="nonzero"/><path fill="#652d90" d="M 925.613281 239.71875 L 879.40625 159.675781 L 833.175781 239.71875 Z M 925.613281 239.71875 " fill-opacity="0.54" fill-rule="nonzero"/><path fill="#26a9e0" d="M 833.175781 239.71875 L 786.945312 159.675781 L 740.738281 239.71875 Z M 833.175781 239.71875 " fill-opacity="0.44" fill-rule="nonzero"/><path fill="#652d90" d="M 740.738281 239.71875 L 694.503906 159.675781 L 648.296875 239.71875 Z M 740.738281 239.71875 " fill-opacity="0.34" fill-rule="nonzero"/><path fill="#652d90" d="M 602.089844 159.675781 L 648.296875 239.71875 L 694.503906 159.675781 Z M 602.089844 159.675781 " fill-opacity="0.47" fill-rule="nonzero"/><path fill="#652d90" d="M 648.296875 239.71875 L 602.089844 159.675781 L 555.859375 239.71875 Z M 648.296875 239.71875 " fill-opacity="0.52" fill-rule="nonzero"/><path fill="#652d90" d="M 417.210938 159.675781 L 463.417969 239.71875 L 509.652344 159.675781 Z M 417.210938 159.675781 " fill-opacity="0.42" fill-rule="nonzero"/><path fill="#26a9e0" d="M 463.417969 239.71875 L 417.210938 159.675781 L 371.003906 239.71875 Z M 463.417969 239.71875 " fill-opacity="0.42" fill-rule="nonzero"/><path fill="#26a9e0" d="M 232.332031 159.675781 L 278.566406 239.71875 L 324.773438 159.675781 Z M 232.332031 159.675781 " fill-opacity="0.21" fill-rule="nonzero"/><path fill="#26a9e0" d="M 278.566406 239.71875 L 232.332031 159.675781 L 186.101562 239.71875 Z M 278.566406 239.71875 " fill-opacity="0.22" fill-rule="nonzero"/><path fill="#26a9e0" d="M 186.101562 239.71875 L 139.894531 159.675781 L 93.664062 239.71875 Z M 186.101562 239.71875 " fill-opacity="0.33" fill-rule="nonzero"/><path fill="#26a9e0" d="M 47.457031 159.675781 L 93.664062 239.71875 L 139.894531 159.675781 Z M 47.457031 159.675781 " fill-opacity="0.1" fill-rule="nonzero"/><path fill="#26a9e0" d="M 93.664062 239.71875 L 47.457031 159.675781 L 1.222656 239.71875 Z M 93.664062 239.71875 " fill-opacity="0.04" fill-rule="nonzero"/><path fill="#652d90" d="M 1295.371094 239.71875 L 1341.601562 319.785156 L 1387.8125 239.71875 Z M 1295.371094 239.71875 " fill-opacity="0.03" fill-rule="nonzero"/><path fill="#26a9e0" d="M 1341.601562 319.785156 L 1295.371094 239.71875 L 1249.164062 319.785156 Z M 1341.601562 319.785156 " fill-opacity="0.01" fill-rule="nonzero"/><path fill="#652d90" d="M 1202.933594 239.71875 L 1249.164062 319.785156 L 1295.371094 239.71875 Z M 1202.933594 239.71875 " fill-opacity="0.3" fill-rule="nonzero"/><path fill="#26a9e0" d="M 1110.492188 239.71875 L 1156.726562 319.785156 L 1202.933594 239.71875 Z M 1110.492188 239.71875 " fill-opacity="0.58" fill-rule="nonzero"/><path fill="#26a9e0" d="M 1018.054688 239.71875 L 1064.285156 319.785156 L 1110.492188 239.71875 Z M 1018.054688 239.71875 " fill-opacity="0.62" fill-rule="nonzero"/><path fill="#26a9e0" d="M 1064.285156 319.785156 L 1018.054688 239.71875 L 971.824219 319.785156 Z M 1064.285156 319.785156 " fill-opacity="0.6" fill-rule="nonzero"/><path fill="#652d90" d="M 925.613281 239.71875 L 971.824219 319.785156 L 1018.054688 239.71875 Z M 925.613281 239.71875 " fill-opacity="0.63" fill-rule="nonzero"/><path fill="#26a9e0" d="M 971.824219 319.785156 L 925.613281 239.71875 L 879.40625 319.785156 Z M 971.824219 319.785156 " fill-opacity="0.59" fill-rule="nonzero"/><path fill="#26a9e0" d="M 833.175781 239.71875 L 879.40625 319.785156 L 925.613281 239.71875 Z M 833.175781 239.71875 " fill-opacity="0.68" fill-rule="nonzero"/><path fill="#26a9e0" d="M 879.40625 319.785156 L 833.175781 239.71875 L 786.945312 319.785156 Z M 879.40625 319.785156 " fill-opacity="0.64" fill-rule="nonzero"/><path fill="#652d90" d="M 740.738281 239.71875 L 786.945312 319.785156 L 833.175781 239.71875 Z M 740.738281 239.71875 " fill-opacity="0.68" fill-rule="nonzero"/><path fill="#26a9e0" d="M 648.296875 239.71875 L 694.503906 319.785156 L 740.738281 239.71875 Z M 648.296875 239.71875 " fill-opacity="0.63" fill-rule="nonzero"/><path fill="#652d90" d="M 694.503906 319.785156 L 648.296875 239.71875 L 602.089844 319.785156 Z M 694.503906 319.785156 " fill-opacity="0.61" fill-rule="nonzero"/><path fill="#652d90" d="M 555.859375 239.71875 L 602.089844 319.785156 L 648.296875 239.71875 Z M 555.859375 239.71875 " fill-opacity="0.63" fill-rule="nonzero"/><path fill="#26a9e0" d="M 602.089844 319.785156 L 555.859375 239.71875 L 509.652344 319.785156 Z M 602.089844 319.785156 " fill-opacity="0.52" fill-rule="nonzero"/><path fill="#26a9e0" d="M 463.417969 239.71875 L 509.652344 319.785156 L 555.859375 239.71875 Z M 463.417969 239.71875 " fill-opacity="0.48" fill-rule="nonzero"/><path fill="#652d90" d="M 371.003906 239.71875 L 417.210938 319.785156 L 463.417969 239.71875 Z M 371.003906 239.71875 " fill-opacity="0.41" fill-rule="nonzero"/><path fill="#652d90" d="M 417.210938 319.785156 L 371.003906 239.71875 L 324.773438 319.785156 Z M 417.210938 319.785156 " fill-opacity="0.34" fill-rule="nonzero"/><path fill="#26a9e0" d="M 278.566406 239.71875 L 324.773438 319.785156 L 371.003906 239.71875 Z M 278.566406 239.71875 " fill-opacity="0.22" fill-rule="nonzero"/><path fill="#652d90" d="M 324.773438 319.785156 L 278.566406 239.71875 L 232.332031 319.785156 Z M 324.773438 319.785156 " fill-opacity="0.18" fill-rule="nonzero"/><path fill="#652d90" d="M 186.101562 239.71875 L 232.332031 319.785156 L 278.566406 239.71875 Z M 186.101562 239.71875 " fill-opacity="0.2" fill-rule="nonzero"/><path fill="#26a9e0" d="M 139.894531 319.785156 L 93.664062 239.71875 L 47.457031 319.785156 Z M 139.894531 319.785156 " fill-opacity="0.09" fill-rule="nonzero"/><path fill="#26a9e0" d="M 1.222656 239.71875 L 47.457031 319.785156 L 93.664062 239.71875 Z M 1.222656 239.71875 " fill-opacity="0.01" fill-rule="nonzero"/><path fill="#26a9e0" d="M 1387.8125 399.804688 L 1341.601562 319.785156 L 1295.371094 399.804688 Z M 1387.8125 399.804688 " fill-opacity="0.25" fill-rule="nonzero"/><path fill="#26a9e0" d="M 1295.371094 399.804688 L 1249.164062 319.785156 L 1202.933594 399.804688 Z M 1295.371094 399.804688 " fill-opacity="0.66" fill-rule="nonzero"/><path fill="#652d90" d="M 1156.726562 319.785156 L 1202.933594 399.804688 L 1249.164062 319.785156 Z M 1156.726562 319.785156 " fill-opacity="0.69" fill-rule="nonzero"/><path fill="#26a9e0" d="M 1202.933594 399.804688 L 1156.726562 319.785156 L 1110.492188 399.804688 Z M 1202.933594 399.804688 " fill-opacity="0.66" fill-rule="nonzero"/><path fill="#652d90" d="M 1064.285156 319.785156 L 1110.492188 399.804688 L 1156.726562 319.785156 Z M 1064.285156 319.785156 " fill-opacity="0.69" fill-rule="nonzero"/><path fill="#652d90" d="M 971.824219 319.785156 L 1018.054688 399.804688 L 1064.285156 319.785156 Z M 971.824219 319.785156 " fill-opacity="0.68" fill-rule="nonzero"/><path fill="#26a9e0" d="M 1018.054688 399.804688 L 971.824219 319.785156 L 925.613281 399.804688 Z M 1018.054688 399.804688 " fill-opacity="0.67" fill-rule="nonzero"/><path fill="#26a9e0" d="M 925.613281 399.804688 L 879.40625 319.785156 L 833.175781 399.804688 Z M 925.613281 399.804688 " fill-opacity="0.77" fill-rule="nonzero"/><path fill="#26a9e0" d="M 786.945312 319.785156 L 833.175781 399.804688 L 879.40625 319.785156 Z M 786.945312 319.785156 " fill-opacity="0.71" fill-rule="nonzero"/><path fill="#652d90" d="M 694.503906 319.785156 L 740.738281 399.804688 L 786.945312 319.785156 Z M 694.503906 319.785156 " fill-opacity="0.71" fill-rule="nonzero"/><path fill="#652d90" d="M 648.296875 399.804688 L 602.089844 319.785156 L 555.859375 399.804688 Z M 648.296875 399.804688 " fill-opacity="0.7" fill-rule="nonzero"/><path fill="#652d90" d="M 509.652344 319.785156 L 555.859375 399.804688 L 602.089844 319.785156 Z M 509.652344 319.785156 " fill-opacity="0.66" fill-rule="nonzero"/><path fill="#652d90" d="M 555.859375 399.804688 L 509.652344 319.785156 L 463.417969 399.804688 Z M 555.859375 399.804688 " fill-opacity="0.56" fill-rule="nonzero"/><path fill="#26a9e0" d="M 417.210938 319.785156 L 463.417969 399.804688 L 509.652344 319.785156 Z M 417.210938 319.785156 " fill-opacity="0.45" fill-rule="nonzero"/><path fill="#26a9e0" d="M 324.773438 319.785156 L 371.003906 399.804688 L 417.210938 319.785156 Z M 324.773438 319.785156 " fill-opacity="0.16" fill-rule="nonzero"/><path fill="#652d90" d="M 371.003906 399.804688 L 324.773438 319.785156 L 278.566406 399.804688 Z M 371.003906 399.804688 " fill-opacity="0.16" fill-rule="nonzero"/><path fill="#26a9e0" d="M 232.332031 319.785156 L 278.566406 399.804688 L 324.773438 319.785156 Z M 232.332031 319.785156 " fill-opacity="0.14" fill-rule="nonzero"/><path fill="#26a9e0" d="M 278.566406 399.804688 L 232.332031 319.785156 L 186.101562 399.804688 Z M 278.566406 399.804688 " fill-opacity="0.18" fill-rule="nonzero"/><path fill="#26a9e0" d="M 139.894531 319.785156 L 186.101562 399.804688 L 232.332031 319.785156 Z M 139.894531 319.785156 " fill-opacity="0.25" fill-rule="nonzero"/><path fill="#652d90" d="M 186.101562 399.804688 L 139.894531 319.785156 L 93.664062 399.804688 Z M 186.101562 399.804688 " fill-opacity="0.35" fill-rule="nonzero"/><path fill="#652d90" d="M 47.457031 319.785156 L 93.664062 399.804688 L 139.894531 319.785156 Z M 47.457031 319.785156 " fill-opacity="0.06" fill-rule="nonzero"/><path fill="#26a9e0" d="M 1387.8125 399.804688 L 1434.042969 479.871094 L 1480.25 399.804688 Z M 1387.8125 399.804688 " fill-opacity="0.01" fill-rule="nonzero"/><path fill="#26a9e0" d="M 1434.042969 479.871094 L 1387.8125 399.804688 L 1341.601562 479.871094 Z M 1434.042969 479.871094 " fill-opacity="0.01" fill-rule="nonzero"/><path fill="#652d90" d="M 1295.371094 399.804688 L 1341.601562 479.871094 L 1387.8125 399.804688 Z M 1295.371094 399.804688 " fill-opacity="0.41" fill-rule="nonzero"/><path fill="#26a9e0" d="M 1202.933594 399.804688 L 1249.164062 479.871094 L 1295.371094 399.804688 Z M 1202.933594 399.804688 " fill-opacity="0.46" fill-rule="nonzero"/><path fill="#652d90" d="M 1249.164062 479.871094 L 1202.933594 399.804688 L 1156.726562 479.871094 Z M 1249.164062 479.871094 " fill-opacity="0.64" fill-rule="nonzero"/><path fill="#26a9e0" d="M 1110.492188 399.804688 L 1156.726562 479.871094 L 1202.933594 399.804688 Z M 1110.492188 399.804688 " fill-opacity="0.56" fill-rule="nonzero"/><path fill="#26a9e0" d="M 1156.726562 479.871094 L 1110.492188 399.804688 L 1064.285156 479.871094 Z M 1156.726562 479.871094 " fill-opacity="0.73" fill-rule="nonzero"/><path fill="#652d90" d="M 1018.054688 399.804688 L 1064.285156 479.871094 L 1110.492188 399.804688 Z M 1018.054688 399.804688 " fill-opacity="0.7" fill-rule="nonzero"/><path fill="#26a9e0" d="M 1064.285156 479.871094 L 1018.054688 399.804688 L 971.824219 479.871094 Z M 1064.285156 479.871094 " fill-opacity="0.73" fill-rule="nonzero"/><path fill="#26a9e0" d="M 925.613281 399.804688 L 971.824219 479.871094 L 1018.054688 399.804688 Z M 925.613281 399.804688 " fill-opacity="0.66" fill-rule="nonzero"/><path fill="#652d90" d="M 971.824219 479.871094 L 925.613281 399.804688 L 879.40625 479.871094 Z M 971.824219 479.871094 " fill-opacity="0.71" fill-rule="nonzero"/><path fill="#652d90" d="M 879.40625 479.871094 L 833.175781 399.804688 L 786.945312 479.871094 Z M 879.40625 479.871094 " fill-opacity="0.68" fill-rule="nonzero"/><path fill="#652d90" d="M 786.945312 479.871094 L 740.738281 399.804688 L 694.503906 479.871094 Z M 786.945312 479.871094 " fill-opacity="0.68" fill-rule="nonzero"/><path fill="#652d90" d="M 648.296875 399.804688 L 694.503906 479.871094 L 740.738281 399.804688 Z M 648.296875 399.804688 " fill-opacity="0.61" fill-rule="nonzero"/><path fill="#26a9e0" d="M 694.503906 479.871094 L 648.296875 399.804688 L 602.089844 479.871094 Z M 694.503906 479.871094 " fill-opacity="0.64" fill-rule="nonzero"/><path fill="#26a9e0" d="M 555.859375 399.804688 L 602.089844 479.871094 L 648.296875 399.804688 Z M 555.859375 399.804688 " fill-opacity="0.59" fill-rule="nonzero"/><path fill="#26a9e0" d="M 602.089844 479.871094 L 555.859375 399.804688 L 509.652344 479.871094 Z M 602.089844 479.871094 " fill-opacity="0.62" fill-rule="nonzero"/><path fill="#26a9e0" d="M 463.417969 399.804688 L 509.652344 479.871094 L 555.859375 399.804688 Z M 463.417969 399.804688 " fill-opacity="0.52" fill-rule="nonzero"/><path fill="#26a9e0" d="M 509.652344 479.871094 L 463.417969 399.804688 L 417.210938 479.871094 Z M 509.652344 479.871094 " fill-opacity="0.32" fill-rule="nonzero"/><path fill="#26a9e0" d="M 417.210938 479.871094 L 371.003906 399.804688 L 324.773438 479.871094 Z M 417.210938 479.871094 " fill-opacity="0.13" fill-rule="nonzero"/><path fill="#26a9e0" d="M 324.773438 479.871094 L 278.566406 399.804688 L 232.332031 479.871094 Z M 324.773438 479.871094 " fill-opacity="0.13" fill-rule="nonzero"/><path fill="#26a9e0" d="M 186.101562 399.804688 L 232.332031 479.871094 L 278.566406 399.804688 Z M 186.101562 399.804688 " fill-opacity="0.1" fill-rule="nonzero"/><path fill="#26a9e0" d="M 1341.601562 479.871094 L 1387.8125 559.910156 L 1434.042969 479.871094 Z M 1341.601562 479.871094 " fill-opacity="0.01" fill-rule="nonzero"/><path fill="#652d90" d="M 1249.164062 479.871094 L 1295.371094 559.910156 L 1341.601562 479.871094 Z M 1249.164062 479.871094 " fill-opacity="0.24" fill-rule="nonzero"/><path fill="#652d90" d="M 1295.371094 559.910156 L 1249.164062 479.871094 L 1202.933594 559.910156 Z M 1295.371094 559.910156 " fill-opacity="0.45" fill-rule="nonzero"/><path fill="#652d90" d="M 1202.933594 559.910156 L 1156.726562 479.871094 L 1110.492188 559.910156 Z M 1202.933594 559.910156 " fill-opacity="0.52" fill-rule="nonzero"/><path fill="#652d90" d="M 1110.492188 559.910156 L 1064.285156 479.871094 L 1018.054688 559.910156 Z M 1110.492188 559.910156 " fill-opacity="0.68" fill-rule="nonzero"/><path fill="#652d90" d="M 971.824219 479.871094 L 1018.054688 559.910156 L 1064.285156 479.871094 Z M 971.824219 479.871094 " fill-opacity="0.52" fill-rule="nonzero"/><path fill="#26a9e0" d="M 879.40625 479.871094 L 925.613281 559.910156 L 971.824219 479.871094 Z M 879.40625 479.871094 " fill-opacity="0.53" fill-rule="nonzero"/><path fill="#26a9e0" d="M 925.613281 559.910156 L 879.40625 479.871094 L 833.175781 559.910156 Z M 925.613281 559.910156 " fill-opacity="0.55" fill-rule="nonzero"/><path fill="#26a9e0" d="M 786.945312 479.871094 L 833.175781 559.910156 L 879.40625 479.871094 Z M 786.945312 479.871094 " fill-opacity="0.47" fill-rule="nonzero"/><path fill="#26a9e0" d="M 833.175781 559.910156 L 786.945312 479.871094 L 740.738281 559.910156 Z M 833.175781 559.910156 " fill-opacity="0.49" fill-rule="nonzero"/><path fill="#26a9e0" d="M 694.503906 479.871094 L 740.738281 559.910156 L 786.945312 479.871094 Z M 694.503906 479.871094 " fill-opacity="0.4" fill-rule="nonzero"/><path fill="#652d90" d="M 740.738281 559.910156 L 694.503906 479.871094 L 648.296875 559.910156 Z M 740.738281 559.910156 " fill-opacity="0.48" fill-rule="nonzero"/><path fill="#652d90" d="M 602.089844 479.871094 L 648.296875 559.910156 L 694.503906 479.871094 Z M 602.089844 479.871094 " fill-opacity="0.42" fill-rule="nonzero"/><path fill="#652d90" d="M 648.296875 559.910156 L 602.089844 479.871094 L 555.859375 559.910156 Z M 648.296875 559.910156 " fill-opacity="0.54" fill-rule="nonzero"/><path fill="#652d90" d="M 509.652344 479.871094 L 555.859375 559.910156 L 602.089844 479.871094 Z M 509.652344 479.871094 " fill-opacity="0.53" fill-rule="nonzero"/><path fill="#652d90" d="M 555.859375 559.910156 L 509.652344 479.871094 L 463.417969 559.910156 Z M 555.859375 559.910156 " fill-opacity="0.23" fill-rule="nonzero"/><path fill="#26a9e0" d="M 417.210938 479.871094 L 463.417969 559.910156 L 509.652344 479.871094 Z M 417.210938 479.871094 " fill-opacity="0.08" fill-rule="nonzero"/><path fill="#652d90" d="M 463.417969 559.910156 L 417.210938 479.871094 L 371.003906 559.910156 Z M 463.417969 559.910156 " fill-opacity="0.09" fill-rule="nonzero"/><path fill="#26a9e0" d="M 324.773438 479.871094 L 371.003906 559.910156 L 417.210938 479.871094 Z M 324.773438 479.871094 " fill-opacity="0.07" fill-rule="nonzero"/><path fill="#652d90" d="M 371.003906 559.910156 L 324.773438 479.871094 L 278.566406 559.910156 Z M 371.003906 559.910156 " fill-opacity="0.11" fill-rule="nonzero"/><path fill="#26a9e0" d="M 232.332031 479.871094 L 278.566406 559.910156 L 324.773438 479.871094 Z M 232.332031 479.871094 " fill-opacity="0.03" fill-rule="nonzero"/><path fill="#26a9e0" d="M 47.457031 479.871094 L 93.664062 559.910156 L 139.894531 479.871094 Z M 47.457031 479.871094 " fill-opacity="0.01" fill-rule="nonzero"/><path fill="#652d90" d="M 1480.25 559.910156 L 1526.480469 639.953125 L 1572.6875 559.910156 Z M 1480.25 559.910156 " fill-opacity="0.05" fill-rule="nonzero"/><path fill="#26a9e0" d="M 1526.480469 639.953125 L 1480.25 559.910156 L 1434.042969 639.953125 Z M 1526.480469 639.953125 " fill-opacity="0.05" fill-rule="nonzero"/><path fill="#652d90" d="M 1387.8125 559.910156 L 1434.042969 639.953125 L 1480.25 559.910156 Z M 1387.8125 559.910156 " fill-opacity="0.01" fill-rule="nonzero"/><path fill="#652d90" d="M 1434.042969 639.953125 L 1387.8125 559.910156 L 1341.601562 639.953125 Z M 1434.042969 639.953125 " fill-opacity="0.01" fill-rule="nonzero"/><path fill="#26a9e0" d="M 1295.371094 559.910156 L 1341.601562 639.953125 L 1387.8125 559.910156 Z M 1295.371094 559.910156 " fill-opacity="0.11" fill-rule="nonzero"/><path fill="#26a9e0" d="M 1341.601562 639.953125 L 1295.371094 559.910156 L 1249.164062 639.953125 Z M 1341.601562 639.953125 " fill-opacity="0.16" fill-rule="nonzero"/><path fill="#26a9e0" d="M 1249.164062 639.953125 L 1202.933594 559.910156 L 1156.726562 639.953125 Z M 1249.164062 639.953125 " fill-opacity="0.3" fill-rule="nonzero"/><path fill="#26a9e0" d="M 1110.492188 559.910156 L 1156.726562 639.953125 L 1202.933594 559.910156 Z M 1110.492188 559.910156 " fill-opacity="0.27" fill-rule="nonzero"/><path fill="#26a9e0" d="M 1156.726562 639.953125 L 1110.492188 559.910156 L 1064.285156 639.953125 Z M 1156.726562 639.953125 " fill-opacity="0.52" fill-rule="nonzero"/><path fill="#652d90" d="M 1018.054688 559.910156 L 1064.285156 639.953125 L 1110.492188 559.910156 Z M 1018.054688 559.910156 " fill-opacity="0.28" fill-rule="nonzero"/><path fill="#26a9e0" d="M 1064.285156 639.953125 L 1018.054688 559.910156 L 971.824219 639.953125 Z M 1064.285156 639.953125 " fill-opacity="0.3" fill-rule="nonzero"/><path fill="#26a9e0" d="M 971.824219 639.953125 L 925.613281 559.910156 L 879.40625 639.953125 Z M 971.824219 639.953125 " fill-opacity="0.33" fill-rule="nonzero"/><path fill="#652d90" d="M 833.175781 559.910156 L 879.40625 639.953125 L 925.613281 559.910156 Z M 833.175781 559.910156 " fill-opacity="0.28" fill-rule="nonzero"/><path fill="#26a9e0" d="M 879.40625 639.953125 L 833.175781 559.910156 L 786.945312 639.953125 Z M 879.40625 639.953125 " fill-opacity="0.29" fill-rule="nonzero"/><path fill="#26a9e0" d="M 740.738281 559.910156 L 786.945312 639.953125 L 833.175781 559.910156 Z M 740.738281 559.910156 " fill-opacity="0.26" fill-rule="nonzero"/><path fill="#652d90" d="M 694.503906 639.953125 L 648.296875 559.910156 L 602.089844 639.953125 Z M 694.503906 639.953125 " fill-opacity="0.29" fill-rule="nonzero"/><path fill="#26a9e0" d="M 602.089844 639.953125 L 555.859375 559.910156 L 509.652344 639.953125 Z M 602.089844 639.953125 " fill-opacity="0.2" fill-rule="nonzero"/><path fill="#26a9e0" d="M 509.652344 639.953125 L 463.417969 559.910156 L 417.210938 639.953125 Z M 509.652344 639.953125 " fill-opacity="0.02" fill-rule="nonzero"/><path fill="#26a9e0" d="M 324.773438 639.953125 L 278.566406 559.910156 L 232.332031 639.953125 Z M 324.773438 639.953125 " fill-opacity="0.01" fill-rule="nonzero"/><path fill="#652d90" d="M 186.101562 559.910156 L 232.332031 639.953125 L 278.566406 559.910156 Z M 186.101562 559.910156 " fill-opacity="0.01" fill-rule="nonzero"/><path fill="#26a9e0" d="M 1526.480469 639.953125 L 1572.6875 720.019531 L 1618.921875 639.953125 Z M 1526.480469 639.953125 " fill-opacity="0.01" fill-rule="nonzero"/><path fill="#26a9e0" d="M 1341.601562 639.953125 L 1387.8125 720.019531 L 1434.042969 639.953125 Z M 1341.601562 639.953125 " fill-opacity="0.06" fill-rule="nonzero"/><path fill="#26a9e0" d="M 1387.8125 720.019531 L 1341.601562 639.953125 L 1295.371094 720.019531 Z M 1387.8125 720.019531 " fill-opacity="0.09" fill-rule="nonzero"/><path fill="#652d90" d="M 1249.164062 639.953125 L 1295.371094 720.019531 L 1341.601562 639.953125 Z M 1249.164062 639.953125 " fill-opacity="0.23" fill-rule="nonzero"/><path fill="#652d90" d="M 1295.371094 720.019531 L 1249.164062 639.953125 L 1202.933594 720.019531 Z M 1295.371094 720.019531 " fill-opacity="0.23" fill-rule="nonzero"/><path fill="#26a9e0" d="M 1156.726562 639.953125 L 1202.933594 720.019531 L 1249.164062 639.953125 Z M 1156.726562 639.953125 " fill-opacity="0.27" fill-rule="nonzero"/><path fill="#652d90" d="M 1202.933594 720.019531 L 1156.726562 639.953125 L 1110.492188 720.019531 Z M 1202.933594 720.019531 " fill-opacity="0.22" fill-rule="nonzero"/><path fill="#652d90" d="M 1064.285156 639.953125 L 1110.492188 720.019531 L 1156.726562 639.953125 Z M 1064.285156 639.953125 " fill-opacity="0.21" fill-rule="nonzero"/><path fill="#26a9e0" d="M 1110.492188 720.019531 L 1064.285156 639.953125 L 1018.054688 720.019531 Z M 1110.492188 720.019531 " fill-opacity="0.1" fill-rule="nonzero"/><path fill="#26a9e0" d="M 971.824219 639.953125 L 1018.054688 720.019531 L 1064.285156 639.953125 Z M 971.824219 639.953125 " fill-opacity="0.07" fill-rule="nonzero"/><path fill="#26a9e0" d="M 1018.054688 720.019531 L 971.824219 639.953125 L 925.613281 720.019531 Z M 1018.054688 720.019531 " fill-opacity="0.26" fill-rule="nonzero"/><path fill="#26a9e0" d="M 879.40625 639.953125 L 925.613281 720.019531 L 971.824219 639.953125 Z M 879.40625 639.953125 " fill-opacity="0.2" fill-rule="nonzero"/><path fill="#26a9e0" d="M 786.945312 639.953125 L 833.175781 720.019531 L 879.40625 639.953125 Z M 786.945312 639.953125 " fill-opacity="0.19" fill-rule="nonzero"/><path fill="#652d90" d="M 694.503906 639.953125 L 740.738281 720.019531 L 786.945312 639.953125 Z M 694.503906 639.953125 " fill-opacity="0.2" fill-rule="nonzero"/><path fill="#652d90" d="M 740.738281 720.019531 L 694.503906 639.953125 L 648.296875 720.019531 Z M 740.738281 720.019531 " fill-opacity="0.35" fill-rule="nonzero"/><path fill="#26a9e0" d="M 602.089844 639.953125 L 648.296875 720.019531 L 694.503906 639.953125 Z M 602.089844 639.953125 " fill-opacity="0.11" fill-rule="nonzero"/><path fill="#26a9e0" d="M 509.652344 639.953125 L 555.859375 720.019531 L 602.089844 639.953125 Z M 509.652344 639.953125 " fill-opacity="0.01" fill-rule="nonzero"/><path fill="#26a9e0" d="M 47.457031 639.953125 L 93.664062 720.019531 L 139.894531 639.953125 Z M 47.457031 639.953125 " fill-opacity="0.01" fill-rule="nonzero"/><path fill="#652d90" d="M 1480.25 720.019531 L 1526.480469 800.0625 L 1572.6875 720.019531 Z M 1480.25 720.019531 " fill-opacity="0.04" fill-rule="nonzero"/><path fill="#26a9e0" d="M 1526.480469 800.0625 L 1480.25 720.019531 L 1434.042969 800.0625 Z M 1526.480469 800.0625 " fill-opacity="0.02" fill-rule="nonzero"/><path fill="#26a9e0" d="M 1387.8125 720.019531 L 1434.042969 800.0625 L 1480.25 720.019531 Z M 1387.8125 720.019531 " fill-opacity="0.1" fill-rule="nonzero"/><path fill="#26a9e0" d="M 1434.042969 800.0625 L 1387.8125 720.019531 L 1341.601562 800.0625 Z M 1434.042969 800.0625 " fill-opacity="0.15" fill-rule="nonzero"/><path fill="#652d90" d="M 1295.371094 720.019531 L 1341.601562 800.0625 L 1387.8125 720.019531 Z M 1295.371094 720.019531 " fill-opacity="0.03" fill-rule="nonzero"/><path fill="#26a9e0" d="M 1341.601562 800.0625 L 1295.371094 720.019531 L 1249.164062 800.0625 Z M 1341.601562 800.0625 " fill-opacity="0.07" fill-rule="nonzero"/><path fill="#26a9e0" d="M 1202.933594 720.019531 L 1249.164062 800.0625 L 1295.371094 720.019531 Z M 1202.933594 720.019531 " fill-opacity="0.2" fill-rule="nonzero"/><path fill="#26a9e0" d="M 1110.492188 720.019531 L 1156.726562 800.0625 L 1202.933594 720.019531 Z M 1110.492188 720.019531 " fill-opacity="0.19" fill-rule="nonzero"/><path fill="#652d90" d="M 1156.726562 800.0625 L 1110.492188 720.019531 L 1064.285156 800.0625 Z M 1156.726562 800.0625 " fill-opacity="0.38" fill-rule="nonzero"/><path fill="#26a9e0" d="M 1018.054688 720.019531 L 1064.285156 800.0625 L 1110.492188 720.019531 Z M 1018.054688 720.019531 " fill-opacity="0.21" fill-rule="nonzero"/><path fill="#26a9e0" d="M 925.613281 720.019531 L 971.824219 800.0625 L 1018.054688 720.019531 Z M 925.613281 720.019531 " fill-opacity="0.01" fill-rule="nonzero"/><path fill="#652d90" d="M 971.824219 800.0625 L 925.613281 720.019531 L 879.40625 800.0625 Z M 971.824219 800.0625 " fill-opacity="0.06" fill-rule="nonzero"/><path fill="#652d90" d="M 879.40625 800.0625 L 833.175781 720.019531 L 786.945312 800.0625 Z M 879.40625 800.0625 " fill-opacity="0.02" fill-rule="nonzero"/><path fill="#26a9e0" d="M 786.945312 800.0625 L 740.738281 720.019531 L 694.503906 800.0625 Z M 786.945312 800.0625 " fill-opacity="0.01" fill-rule="nonzero"/><path fill="#26a9e0" d="M 694.503906 800.0625 L 648.296875 720.019531 L 602.089844 800.0625 Z M 694.503906 800.0625 " fill-opacity="0.03" fill-rule="nonzero"/><path fill="#26a9e0" d="M 1526.480469 800.0625 L 1572.6875 880.101562 L 1618.921875 800.0625 Z M 1526.480469 800.0625 " fill-opacity="0.04" fill-rule="nonzero"/><path fill="#652d90" d="M 1572.6875 880.101562 L 1526.480469 800.0625 L 1480.25 880.101562 Z M 1572.6875 880.101562 " fill-opacity="0.09" fill-rule="nonzero"/><path fill="#652d90" d="M 1434.042969 800.0625 L 1480.25 880.101562 L 1526.480469 800.0625 Z M 1434.042969 800.0625 " fill-opacity="0.01" fill-rule="nonzero"/><path fill="#26a9e0" d="M 1480.25 880.101562 L 1434.042969 800.0625 L 1387.8125 880.101562 Z M 1480.25 880.101562 " fill-opacity="0.03" fill-rule="nonzero"/><path fill="#26a9e0" d="M 1341.601562 800.0625 L 1387.8125 880.101562 L 1434.042969 800.0625 Z M 1341.601562 800.0625 " fill-opacity="0.04" fill-rule="nonzero"/><path fill="#26a9e0" d="M 1387.8125 880.101562 L 1341.601562 800.0625 L 1295.371094 880.101562 Z M 1387.8125 880.101562 " fill-opacity="0.02" fill-rule="nonzero"/><path fill="#26a9e0" d="M 1249.164062 800.0625 L 1295.371094 880.101562 L 1341.601562 800.0625 Z M 1249.164062 800.0625 " fill-opacity="0.04" fill-rule="nonzero"/><path fill="#26a9e0" d="M 1295.371094 880.101562 L 1249.164062 800.0625 L 1202.933594 880.101562 Z M 1295.371094 880.101562 " fill-opacity="0.06" fill-rule="nonzero"/><path fill="#26a9e0" d="M 1156.726562 800.0625 L 1202.933594 880.101562 L 1249.164062 800.0625 Z M 1156.726562 800.0625 " fill-opacity="0.05" fill-rule="nonzero"/><path fill="#26a9e0" d="M 1064.285156 800.0625 L 1110.492188 880.101562 L 1156.726562 800.0625 Z M 1064.285156 800.0625 " fill-opacity="0.06" fill-rule="nonzero"/><path fill="#652d90" d="M 1110.492188 880.101562 L 1064.285156 800.0625 L 1018.054688 880.101562 Z M 1110.492188 880.101562 " fill-opacity="0.09" fill-rule="nonzero"/><path fill="#26a9e0" d="M 971.824219 800.0625 L 1018.054688 880.101562 L 1064.285156 800.0625 Z M 971.824219 800.0625 " fill-opacity="0.02" fill-rule="nonzero"/><path fill="#26a9e0" d="M 1018.054688 880.101562 L 971.824219 800.0625 L 925.613281 880.101562 Z M 1018.054688 880.101562 " fill-opacity="0.05" fill-rule="nonzero"/><path fill="#652d90" d="M 833.175781 880.101562 L 786.945312 800.0625 L 740.738281 880.101562 Z M 833.175781 880.101562 " fill-opacity="0.07" fill-rule="nonzero"/><path fill="#652d90" d="M 694.503906 800.0625 L 740.738281 880.101562 L 786.945312 800.0625 Z M 694.503906 800.0625 " fill-opacity="0.01" fill-rule="nonzero"/><path fill="#26a9e0" d="M 648.296875 880.101562 L 602.089844 800.0625 L 555.859375 880.101562 Z M 648.296875 880.101562 " fill-opacity="0.01" fill-rule="nonzero"/><path fill="#26a9e0" d="M 1480.25 880.101562 L 1526.480469 960.167969 L 1572.6875 880.101562 Z M 1480.25 880.101562 " fill-opacity="0.04" fill-rule="nonzero"/><path fill="#652d90" d="M 1387.8125 880.101562 L 1434.042969 960.167969 L 1480.25 880.101562 Z M 1387.8125 880.101562 " fill-opacity="0.04" fill-rule="nonzero"/><path fill="#26a9e0" d="M 1434.042969 960.167969 L 1387.8125 880.101562 L 1341.601562 960.167969 Z M 1434.042969 960.167969 " fill-opacity="0.03" fill-rule="nonzero"/><path fill="#26a9e0" d="M 1295.371094 880.101562 L 1341.601562 960.167969 L 1387.8125 880.101562 Z M 1295.371094 880.101562 " fill-opacity="0.04" fill-rule="nonzero"/><path fill="#26a9e0" d="M 1249.164062 960.167969 L 1202.933594 880.101562 L 1156.726562 960.167969 Z M 1249.164062 960.167969 " fill-opacity="0.08" fill-rule="nonzero"/><path fill="#26a9e0" d="M 1110.492188 880.101562 L 1156.726562 960.167969 L 1202.933594 880.101562 Z M 1110.492188 880.101562 " fill-opacity="0.11" fill-rule="nonzero"/><path fill="#652d90" d="M 1156.726562 960.167969 L 1110.492188 880.101562 L 1064.285156 960.167969 Z M 1156.726562 960.167969 " fill-opacity="0.08" fill-rule="nonzero"/><path fill="#26a9e0" d="M 1018.054688 880.101562 L 1064.285156 960.167969 L 1110.492188 880.101562 Z M 1018.054688 880.101562 " fill-opacity="0.01" fill-rule="nonzero"/><path fill="#26a9e0" d="M 1064.285156 960.167969 L 1018.054688 880.101562 L 971.824219 960.167969 Z M 1064.285156 960.167969 " fill-opacity="0.05" fill-rule="nonzero"/><path fill="#26a9e0" d="M 925.613281 880.101562 L 971.824219 960.167969 L 1018.054688 880.101562 Z M 925.613281 880.101562 " fill-opacity="0.1" fill-rule="nonzero"/><path fill="#26a9e0" d="M 1572.6875 1040.210938 L 1526.480469 960.167969 L 1480.25 1040.210938 Z M 1572.6875 1040.210938 " fill-opacity="0.01" fill-rule="nonzero"/><path fill="#652d90" d="M 1341.601562 960.167969 L 1387.8125 1040.210938 L 1434.042969 960.167969 Z M 1341.601562 960.167969 " fill-opacity="0.02" fill-rule="nonzero"/><path fill="#652d90" d="M 1295.371094 1040.210938 L 1249.164062 960.167969 L 1202.933594 1040.210938 Z M 1295.371094 1040.210938 " fill-opacity="0.02" fill-rule="nonzero"/><path fill="#26a9e0" d="M 1156.726562 960.167969 L 1202.933594 1040.210938 L 1249.164062 960.167969 Z M 1156.726562 960.167969 " fill-opacity="0.02" fill-rule="nonzero"/><path fill="#26a9e0" d="M 1202.933594 1040.210938 L 1156.726562 960.167969 L 1110.492188 1040.210938 Z M 1202.933594 1040.210938 " fill-opacity="0.08" fill-rule="nonzero"/><path fill="#26a9e0" d="M 1064.285156 960.167969 L 1110.492188 1040.210938 L 1156.726562 960.167969 Z M 1064.285156 960.167969 " fill-opacity="0.03" fill-rule="nonzero"/><path fill="#652d90" d="M 971.824219 960.167969 L 1018.054688 1040.210938 L 1064.285156 960.167969 Z M 971.824219 960.167969 " fill-opacity="0.01" fill-rule="nonzero"/><path fill="#26a9e0" d="M 879.40625 960.167969 L 925.613281 1040.210938 L 971.824219 960.167969 Z M 879.40625 960.167969 " fill-opacity="0.02" fill-rule="nonzero"/><path fill="#652d90" d="M 555.859375 1040.210938 L 509.652344 960.167969 L 463.417969 1040.210938 Z M 555.859375 1040.210938 " fill-opacity="0.01" fill-rule="nonzero"/><path fill="#26a9e0" d="M 1480.25 1040.210938 L 1526.480469 1120.277344 L 1572.6875 1040.210938 Z M 1480.25 1040.210938 " fill-opacity="0.04" fill-rule="nonzero"/><path fill="#652d90" d="M 1526.480469 1120.277344 L 1480.25 1040.210938 L 1434.042969 1120.277344 Z M 1526.480469 1120.277344 " fill-opacity="0.02" fill-rule="nonzero"/><path fill="#652d90" d="M 1387.8125 1040.210938 L 1434.042969 1120.277344 L 1480.25 1040.210938 Z M 1387.8125 1040.210938 " fill-opacity="0.02" fill-rule="nonzero"/><path fill="#652d90" d="M 1434.042969 1120.277344 L 1387.8125 1040.210938 L 1341.601562 1120.277344 Z M 1434.042969 1120.277344 " fill-opacity="0.03" fill-rule="nonzero"/><path fill="#26a9e0" d="M 1341.601562 1120.277344 L 1295.371094 1040.210938 L 1249.164062 1120.277344 Z M 1341.601562 1120.277344 " fill-opacity="0.01" fill-rule="nonzero"/><path fill="#26a9e0" d="M 1110.492188 1040.210938 L 1156.726562 1120.277344 L 1202.933594 1040.210938 Z M 1110.492188 1040.210938 " fill-opacity="0.01" fill-rule="nonzero"/><path fill="#652d90" d="M 1156.726562 1120.277344 L 1110.492188 1040.210938 L 1064.285156 1120.277344 Z M 1156.726562 1120.277344 " fill-opacity="0.01" fill-rule="nonzero"/><path fill="#26a9e0" d="M 1018.054688 1040.210938 L 1064.285156 1120.277344 L 1110.492188 1040.210938 Z M 1018.054688 1040.210938 " fill-opacity="0.01" fill-rule="nonzero"/><path fill="#26a9e0" d="M 925.613281 1040.210938 L 971.824219 1120.277344 L 1018.054688 1040.210938 Z M 925.613281 1040.210938 " fill-opacity="0.02" fill-rule="nonzero"/><g clip-path="url(#73efafe6ba)"><path fill="#26a9e0" d="M 1434.042969 1120.277344 L 1480.25 1200.320312 L 1526.480469 1120.277344 Z M 1434.042969 1120.277344 " fill-opacity="0.01" fill-rule="nonzero"/></g><g clip-path="url(#a597e36c56)"><path fill="#26a9e0" d="M 1202.933594 1200.320312 L 1156.726562 1120.277344 L 1110.492188 1200.320312 Z M 1202.933594 1200.320312 " fill-opacity="0.01" fill-rule="nonzero"/></g><g clip-path="url(#3dcc0794f7)"><path fill="#26a9e0" d="M 648.296875 1200.320312 L 602.089844 1120.277344 L 555.859375 1200.320312 Z M 648.296875 1200.320312 " fill-opacity="0.01" fill-rule="nonzero"/></g><g clip-path="url(#22c86e7fc9)"><path fill="#ffffff" d="M 1329.460938 -81.429688 L 1619.84375 -81.429688 L 1619.84375 11.03125 L 1329.460938 11.03125 Z M 1329.460938 -81.429688 " fill-opacity="1" fill-rule="nonzero"/></g></svg>